<?xml version="1.0" standalone="no"?><!DOCTYPE svg PUBLIC "-//W3C//DTD SVG 1.1//EN" "http://www.w3.org/Graphics/SVG/1.1/DTD/svg11.dtd"><svg t="1723784021497" class="icon" viewBox="0 0 1024 1024" version="1.1" xmlns="http://www.w3.org/2000/svg" p-id="2670" xmlns:xlink="http://www.w3.org/1999/xlink" width="220" height="220"><path d="M472.868571 104.484571c14.592 0 28.16 4.461714 39.131429 11.904a69.888 69.888 0 0 1 39.131429-11.885714h0.054857l3.913143 0.073143a80.128 80.128 0 0 1 74.130285 62.610286l67.401143 318.171428 62.701714 57.984h34.797715a62.701714 62.701714 0 0 1 62.683428-62.683428h31.36A62.701714 62.701714 0 0 1 950.857143 543.341714v313.472a62.701714 62.701714 0 0 1-62.683429 62.701715h-31.36a62.701714 62.701714 0 0 1-62.683428-62.701715v-31.341714h-182.016a62.829714 62.829714 0 0 1-58.733715-40.758857L512 668.726857l-41.380571 115.053714-0.128 0.438858a62.72 62.72 0 0 1-58.806858 41.252571h-181.796571v31.341714a62.701714 62.701714 0 0 1-62.701714 62.701715H135.844571A62.701714 62.701714 0 0 1 73.142857 856.813714V543.341714a62.701714 62.701714 0 0 1 62.701714-62.683428h31.341715a62.701714 62.701714 0 0 1 62.683428 62.683428h34.797715l62.08-57.984 68.022857-318.171428 0.091428-0.548572a79.963429 79.963429 0 0 1 77.952-62.153143z m-305.682285 438.857143H135.844571v313.472h31.341715V543.341714z m720.969143 0h-31.341715v313.472h31.341715V543.341714zM472.813714 167.186286a17.28 17.28 0 0 0-16.603428 13.476571l-67.712 319.104-0.091429 0.438857a62.72 62.72 0 0 1-18.413714 30.902857l-62.646857 57.965715c-11.154286 10.477714-26.148571 16.914286-42.678857 16.969143h-34.797715v156.726857h181.504l56.429715-156.726857-0.493715 1.517714c8.630857-23.552 13.348571-48.987429 13.348572-75.52V175.012571a7.844571 7.844571 0 0 0-6.436572-7.698285l-1.426285-0.128z m78.372572 0a7.844571 7.844571 0 0 0-7.844572 7.826285v357.888c0 26.221714 4.589714 51.364571 12.544 73.142858l56.429715 156.726857 181.814857-1.243429v-156.745143h-32.932572a62.427429 62.427429 0 0 1-42.605714-16.914285l-62.72-58.002286a62.921143 62.921143 0 0 1-18.468571-31.341714L567.771429 180.662857a17.28 17.28 0 0 0-16.603429-13.476571z" fill="#000000" p-id="2671"></path></svg>